<svg width="13" height="16" viewBox="0 0 13 16" fill="none" xmlns="http://www.w3.org/2000/svg">
<mask id="mask0_301_313" style="mask-type:luminance" maskUnits="userSpaceOnUse" x="0" y="9" width="13" height="7">
<path fill-rule="evenodd" clip-rule="evenodd" d="M0.889771 9.93018H12.4552V15.6529H0.889771V9.93018Z" fill="white"/>
</mask>
<g mask="url(#mask0_301_313)">
<path fill-rule="evenodd" clip-rule="evenodd" d="M6.67292 11.0943C3.56177 11.0943 1.98465 11.6623 1.98465 12.7838C1.98465 13.9153 3.56177 14.4888 6.67292 14.4888C9.78334 14.4888 11.3597 13.9207 11.3597 12.7993C11.3597 11.6678 9.78334 11.0943 6.67292 11.0943ZM6.67258 15.6529C5.24223 15.6529 0.889099 15.6529 0.889099 12.7838C0.889099 10.2259 4.19009 9.93018 6.67258 9.93018C8.10294 9.93018 12.4546 9.93018 12.4546 12.7993C12.4546 15.3573 9.15435 15.6529 6.67258 15.6529Z" fill="#868686"/>
</g>
<mask id="mask1_301_313" style="mask-type:luminance" maskUnits="userSpaceOnUse" x="2" y="0" width="9" height="9">
<path fill-rule="evenodd" clip-rule="evenodd" d="M2.79547 0.232422H10.5496V8.47323H2.79547V0.232422Z" fill="white"/>
</mask>
<g mask="url(#mask1_301_313)">
<path fill-rule="evenodd" clip-rule="evenodd" d="M6.67349 1.34026C5.11025 1.34026 3.83833 2.69141 3.83833 4.35298C3.83322 6.00912 5.09564 7.35949 6.65231 7.3657L6.67349 7.91981V7.3657C8.236 7.3657 9.50718 6.01378 9.50718 4.35298C9.50718 2.69141 8.236 1.34026 6.67349 1.34026M6.6733 8.47306H6.64993C4.51645 8.46607 2.78819 6.61669 2.79549 4.35055C2.79549 2.08054 4.5347 0.231934 6.6733 0.231934C8.81116 0.231934 10.5496 2.08054 10.5496 4.35288C10.5496 6.62523 8.81116 8.47306 6.6733 8.47306" fill="#868686"/>
</g>
</svg>
