<svg width="22" height="23" viewBox="0 0 22 23" fill="none" xmlns="http://www.w3.org/2000/svg">
<mask id="mask0_178_4136" style="mask-type:luminance" maskUnits="userSpaceOnUse" x="0" y="0" width="22" height="22">
<path fill-rule="evenodd" clip-rule="evenodd" d="M0 0H21.1451V21.067H0V0Z" fill="white"/>
</mask>
<g mask="url(#mask0_178_4136)">
<path fill-rule="evenodd" clip-rule="evenodd" d="M10.573 1.62253C5.64085 1.62253 1.62827 5.61918 1.62827 10.5331C1.62827 15.4469 5.64085 19.4447 10.573 19.4447C15.504 19.4447 19.5166 15.4469 19.5166 10.5331C19.5166 5.61918 15.504 1.62253 10.573 1.62253ZM10.5729 21.067C4.74298 21.067 -0.000244141 16.3414 -0.000244141 10.533C-0.000244141 4.72459 4.74298 0 10.5729 0C16.4029 0 21.145 4.72459 21.145 10.533C21.145 16.3414 16.4029 21.067 10.5729 21.067Z" fill="#676767"/>
</g>
<mask id="mask1_178_4136" style="mask-type:luminance" maskUnits="userSpaceOnUse" x="16" y="16" width="6" height="7">
<path fill-rule="evenodd" clip-rule="evenodd" d="M16.5452 16.9893H21.9995V22.4134H16.5452V16.9893Z" fill="white"/>
</mask>
<g mask="url(#mask1_178_4136)">
<path fill-rule="evenodd" clip-rule="evenodd" d="M21.1855 22.4134C20.9782 22.4134 20.7697 22.3344 20.6101 22.1765L16.7843 18.3756C16.4662 18.0587 16.4651 17.5449 16.7832 17.228C17.1002 16.9089 17.6159 16.9111 17.9351 17.2259L21.7609 21.0278C22.079 21.3447 22.0801 21.8574 21.762 22.1744C21.6035 22.3344 21.394 22.4134 21.1855 22.4134Z" fill="#676767"/>
</g>
</svg>
