<svg width="16" height="16" viewBox="0 0 16 16" fill="none" xmlns="http://www.w3.org/2000/svg">
<path fill-rule="evenodd" clip-rule="evenodd" d="M10.9066 9.8258C10.8056 9.8258 10.7038 9.79959 10.6105 9.74484L7.70371 8.0108C7.52945 7.90594 7.42151 7.71704 7.42151 7.51349V3.77554C7.42151 3.45633 7.68057 3.19727 7.99978 3.19727C8.31976 3.19727 8.57805 3.45633 8.57805 3.77554V7.18503L11.2034 8.75022C11.4771 8.91445 11.5673 9.26912 11.4039 9.5436C11.2952 9.7248 11.1032 9.8258 10.9066 9.8258Z" fill="#868686"/>
<path fill-rule="evenodd" clip-rule="evenodd" d="M8.26093 1.38896C4.64712 1.38896 1.70718 4.3289 1.70718 7.94271C1.70718 11.5565 4.64712 14.4965 8.26093 14.4965C11.8747 14.4965 14.8147 11.5565 14.8147 7.94271C14.8147 4.3289 11.8747 1.38896 8.26093 1.38896ZM8.26168 15.653C4.01023 15.653 0.551392 12.1942 0.551392 7.94271C0.551392 3.69126 4.01023 0.232422 8.26168 0.232422C12.5131 0.232422 15.972 3.69126 15.972 7.94271C15.972 12.1942 12.5131 15.653 8.26168 15.653Z" fill="#868686"/>
</svg>
